<?xml version="1.0" encoding="UTF-8" standalone="no"?>
<!DOCTYPE svg PUBLIC "-//W3C//DTD SVG 1.1//EN"
 "http://www.w3.org/Graphics/SVG/1.1/DTD/svg11.dtd">
<!-- Generated by graphviz version 2.43.0 (0)
 -->
<!-- Title: G Pages: 1 -->
<svg width="418pt" height="435pt"
 viewBox="0.00 0.00 417.59 434.95" xmlns="http://www.w3.org/2000/svg" xmlns:xlink="http://www.w3.org/1999/xlink">
<g id="graph0" class="graph" transform="scale(1 1) rotate(0) translate(4 430.95)">
<title>G</title><style>.edge>path:hover{stroke-width:8}</style>
<polygon fill="white" stroke="transparent" points="-4,4 -4,-430.95 413.59,-430.95 413.59,4 -4,4"/>
<!-- app -->
<g id="node1" class="node">
<title>app</title><style>.edge>path:hover{stroke-width:8}</style>
<ellipse fill="#f31616" stroke="black" cx="162.79" cy="-127" rx="27" ry="18"/>
<text text-anchor="middle" x="162.79" y="-124.5" font-family="Helvetica,sans-Serif" font-size="10.00" fill="#ffffff">app</text>
</g>
<!-- main_py -->
<g id="node10" class="node">
<title>main_py</title><style>.edge>path:hover{stroke-width:8}</style>
<ellipse fill="#447e7e" stroke="black" cx="267.79" cy="-18" rx="32.93" ry="18"/>
<text text-anchor="middle" x="267.79" y="-15.5" font-family="Helvetica,sans-Serif" font-size="10.00" fill="#ffffff">main.py</text>
</g>
<!-- app&#45;&gt;main_py -->
<g id="edge1" class="edge">
<title>app&#45;&gt;main_py</title><style>.edge>path:hover{stroke-width:8}</style>
<path fill="none" stroke="black" d="M184.13,-115.71C214.64,-100.94 267.15,-75.22 267.79,-73"/>
<path fill="none" stroke="black" d="M267.79,-72C270.18,-63.8 270.84,-54.58 270.7,-46.16"/>
<polygon fill="#f31616" stroke="black" points="274.19,-45.86 270.18,-36.05 267.2,-46.22 274.19,-45.86"/>
</g>
<!-- app_src -->
<g id="node2" class="node">
<title>app_src</title><style>.edge>path:hover{stroke-width:8}</style>
<ellipse fill="#f31616" stroke="black" cx="238.79" cy="-127" rx="30.72" ry="18"/>
<text text-anchor="middle" x="238.79" y="-124.5" font-family="Helvetica,sans-Serif" font-size="10.00" fill="#ffffff">app.src</text>
</g>
<!-- app_src&#45;&gt;main_py -->
<g id="edge2" class="edge">
<title>app_src&#45;&gt;main_py</title><style>.edge>path:hover{stroke-width:8}</style>
<path fill="none" stroke="black" d="M249.89,-110.1C256.33,-99.97 263.92,-86.29 267.79,-73"/>
</g>
<!-- app_src_buffer -->
<g id="node3" class="node">
<title>app_src_buffer</title><style>.edge>path:hover{stroke-width:8}</style>
<ellipse fill="#c24747" stroke="black" cx="220.79" cy="-303.97" rx="48.72" ry="18"/>
<text text-anchor="middle" x="220.79" y="-301.47" font-family="Helvetica,sans-Serif" font-size="10.00" fill="#ffffff">app.src.buffer</text>
</g>
<!-- app_src_redis_master -->
<g id="node6" class="node">
<title>app_src_redis_master</title><style>.edge>path:hover{stroke-width:8}</style>
<ellipse fill="#964040" stroke="black" cx="187.79" cy="-209.99" rx="56.64" ry="28.98"/>
<text text-anchor="middle" x="187.79" y="-218.49" font-family="Helvetica,sans-Serif" font-size="10.00" fill="#ffffff">app.</text>
<text text-anchor="middle" x="187.79" y="-207.49" font-family="Helvetica,sans-Serif" font-size="10.00" fill="#ffffff">src.</text>
<text text-anchor="middle" x="187.79" y="-196.49" font-family="Helvetica,sans-Serif" font-size="10.00" fill="#ffffff">redis_master</text>
</g>
<!-- app_src_buffer&#45;&gt;app_src_redis_master -->
<g id="edge3" class="edge">
<title>app_src_buffer&#45;&gt;app_src_redis_master</title><style>.edge>path:hover{stroke-width:8}</style>
<path fill="none" stroke="black" d="M214.74,-286.1C210.94,-275.52 205.9,-261.45 201.19,-248.35"/>
<polygon fill="#c24747" stroke="black" points="204.37,-246.82 197.69,-238.59 197.78,-249.18 204.37,-246.82"/>
</g>
<!-- app_src_redisio -->
<g id="node9" class="node">
<title>app_src_redisio</title><style>.edge>path:hover{stroke-width:8}</style>
<ellipse fill="#9d4343" stroke="black" cx="297.79" cy="-209.99" rx="35.21" ry="28.98"/>
<text text-anchor="middle" x="297.79" y="-218.49" font-family="Helvetica,sans-Serif" font-size="10.00" fill="#ffffff">app.</text>
<text text-anchor="middle" x="297.79" y="-207.49" font-family="Helvetica,sans-Serif" font-size="10.00" fill="#ffffff">src.</text>
<text text-anchor="middle" x="297.79" y="-196.49" font-family="Helvetica,sans-Serif" font-size="10.00" fill="#ffffff">redisio</text>
</g>
<!-- app_src_buffer&#45;&gt;app_src_redisio -->
<g id="edge4" class="edge">
<title>app_src_buffer&#45;&gt;app_src_redisio</title><style>.edge>path:hover{stroke-width:8}</style>
<path fill="none" stroke="black" d="M234.56,-286.53C244.78,-274.32 259.03,-257.3 271.42,-242.5"/>
<polygon fill="#c24747" stroke="black" points="274.33,-244.47 278.07,-234.55 268.97,-239.97 274.33,-244.47"/>
</g>
<!-- app_src_rdb -->
<g id="node4" class="node">
<title>app_src_rdb</title><style>.edge>path:hover{stroke-width:8}</style>
<ellipse fill="#a44646" stroke="black" cx="367.79" cy="-303.97" rx="41.59" ry="18"/>
<text text-anchor="middle" x="367.79" y="-301.47" font-family="Helvetica,sans-Serif" font-size="10.00" fill="#ffffff">app.src.rdb</text>
</g>
<!-- app_src_rdb&#45;&gt;main_py -->
<g id="edge5" class="edge">
<title>app_src_rdb&#45;&gt;main_py</title><style>.edge>path:hover{stroke-width:8}</style>
<path fill="none" stroke="black" d="M367.55,-285.89C367.04,-267.31 365.49,-236.83 360.79,-210.99"/>
</g>
<!-- app_src_redis_base -->
<g id="node5" class="node">
<title>app_src_redis_base</title><style>.edge>path:hover{stroke-width:8}</style>
<ellipse fill="#b03a3a" stroke="black" cx="66.79" cy="-303.97" rx="48.58" ry="28.98"/>
<text text-anchor="middle" x="66.79" y="-312.47" font-family="Helvetica,sans-Serif" font-size="10.00" fill="#ffffff">app.</text>
<text text-anchor="middle" x="66.79" y="-301.47" font-family="Helvetica,sans-Serif" font-size="10.00" fill="#ffffff">src.</text>
<text text-anchor="middle" x="66.79" y="-290.47" font-family="Helvetica,sans-Serif" font-size="10.00" fill="#ffffff">redis_base</text>
</g>
<!-- app_src_redis_base&#45;&gt;app_src_redis_master -->
<g id="edge6" class="edge">
<title>app_src_redis_base&#45;&gt;app_src_redis_master</title><style>.edge>path:hover{stroke-width:8}</style>
<path fill="none" stroke="black" d="M96.08,-280.71C111.83,-268.74 131.46,-253.81 148.52,-240.85"/>
<polygon fill="#b03a3a" stroke="black" points="150.81,-243.5 156.66,-234.66 146.58,-237.93 150.81,-243.5"/>
</g>
<!-- app_src_redis_slave -->
<g id="node7" class="node">
<title>app_src_redis_slave</title><style>.edge>path:hover{stroke-width:8}</style>
<ellipse fill="#9d4343" stroke="black" cx="62.79" cy="-209.99" rx="50.82" ry="28.98"/>
<text text-anchor="middle" x="62.79" y="-218.49" font-family="Helvetica,sans-Serif" font-size="10.00" fill="#ffffff">app.</text>
<text text-anchor="middle" x="62.79" y="-207.49" font-family="Helvetica,sans-Serif" font-size="10.00" fill="#ffffff">src.</text>
<text text-anchor="middle" x="62.79" y="-196.49" font-family="Helvetica,sans-Serif" font-size="10.00" fill="#ffffff">redis_slave</text>
</g>
<!-- app_src_redis_base&#45;&gt;app_src_redis_slave -->
<g id="edge7" class="edge">
<title>app_src_redis_base&#45;&gt;app_src_redis_slave</title><style>.edge>path:hover{stroke-width:8}</style>
<path fill="none" stroke="black" d="M65.57,-274.88C65.22,-266.84 64.83,-257.94 64.46,-249.39"/>
<polygon fill="#b03a3a" stroke="black" points="67.95,-249.07 64.02,-239.23 60.96,-249.38 67.95,-249.07"/>
</g>
<!-- app_src_redis_master&#45;&gt;main_py -->
<g id="edge8" class="edge">
<title>app_src_redis_master&#45;&gt;main_py</title><style>.edge>path:hover{stroke-width:8}</style>
<path fill="none" stroke="black" d="M226.61,-188.63C257.54,-171.12 295.98,-145.93 297.79,-128"/>
</g>
<!-- app_src_redis_slave&#45;&gt;main_py -->
<g id="edge9" class="edge">
<title>app_src_redis_slave&#45;&gt;main_py</title><style>.edge>path:hover{stroke-width:8}</style>
<path fill="none" stroke="black" d="M99.73,-189.97C106.93,-186.69 114.51,-183.53 121.79,-181 198.97,-154.2 289.6,-209.28 297.79,-128"/>
<path fill="none" stroke="black" d="M297.79,-126C300.51,-99.07 260.23,-98.99 267.79,-73"/>
</g>
<!-- app_src_redisdata -->
<g id="node8" class="node">
<title>app_src_redisdata</title><style>.edge>path:hover{stroke-width:8}</style>
<ellipse fill="#f31616" stroke="black" cx="143.79" cy="-397.96" rx="43.68" ry="28.98"/>
<text text-anchor="middle" x="143.79" y="-406.46" font-family="Helvetica,sans-Serif" font-size="10.00" fill="#ffffff">app.</text>
<text text-anchor="middle" x="143.79" y="-395.46" font-family="Helvetica,sans-Serif" font-size="10.00" fill="#ffffff">src.</text>
<text text-anchor="middle" x="143.79" y="-384.46" font-family="Helvetica,sans-Serif" font-size="10.00" fill="#ffffff">redisdata</text>
</g>
<!-- app_src_redisdata&#45;&gt;app_src_rdb -->
<g id="edge10" class="edge">
<title>app_src_redisdata&#45;&gt;app_src_rdb</title><style>.edge>path:hover{stroke-width:8}</style>
<path fill="none" stroke="black" d="M182.26,-383.54C216.6,-371.27 268.07,-352.16 311.79,-332.97 318.77,-329.9 326.13,-326.42 333.13,-322.97"/>
<polygon fill="#f31616" stroke="black" points="335.02,-325.94 342.4,-318.34 331.89,-319.68 335.02,-325.94"/>
</g>
<!-- app_src_redisdata&#45;&gt;app_src_redis_base -->
<g id="edge11" class="edge">
<title>app_src_redisdata&#45;&gt;app_src_redis_base</title><style>.edge>path:hover{stroke-width:8}</style>
<path fill="none" stroke="black" d="M123.16,-372.31C114.41,-361.86 104.08,-349.52 94.67,-338.28"/>
<polygon fill="#f31616" stroke="black" points="97.12,-335.75 88.02,-330.33 91.76,-340.25 97.12,-335.75"/>
</g>
<!-- app_src_redisdata&#45;&gt;app_src_redis_master -->
<g id="edge12" class="edge">
<title>app_src_redisdata&#45;&gt;app_src_redis_master</title><style>.edge>path:hover{stroke-width:8}</style>
<path fill="none" stroke="black" d="M146.4,-368.98C149.13,-344.03 154.25,-306.64 162.79,-274.98 165.19,-266.11 168.4,-256.79 171.73,-248.09"/>
<polygon fill="#f31616" stroke="black" points="175.06,-249.17 175.49,-238.58 168.56,-246.59 175.06,-249.17"/>
</g>
<!-- app_src_redisdata&#45;&gt;app_src_redis_slave -->
<g id="edge13" class="edge">
<title>app_src_redisdata&#45;&gt;app_src_redis_slave</title><style>.edge>path:hover{stroke-width:8}</style>
<path fill="none" stroke="black" d="M101.65,-389.39C70.1,-381.28 29.04,-364.97 8.79,-332.97 -4.99,-311.19 -0.06,-299.19 8.79,-274.98 13.12,-263.14 20.71,-251.98 28.86,-242.4"/>
<polygon fill="#f31616" stroke="black" points="31.67,-244.51 35.78,-234.74 26.48,-239.81 31.67,-244.51"/>
</g>
<!-- app_src_redisdata&#45;&gt;app_src_redisio -->
<g id="edge14" class="edge">
<title>app_src_redisdata&#45;&gt;app_src_redisio</title><style>.edge>path:hover{stroke-width:8}</style>
<path fill="none" stroke="black" d="M183.02,-384.67C211.81,-374.24 250.63,-357.1 278.79,-332.97 290.21,-323.18 288.42,-316.73 297.79,-304.97"/>
<path fill="none" stroke="black" d="M297.79,-302.97C309.75,-287.98 310.49,-266.81 307.9,-248.56"/>
<polygon fill="#f31616" stroke="black" points="311.31,-247.73 306.11,-238.5 304.42,-248.96 311.31,-247.73"/>
</g>
<!-- app_src_redisdata&#45;&gt;main_py -->
<g id="edge15" class="edge">
<title>app_src_redisdata&#45;&gt;main_py</title><style>.edge>path:hover{stroke-width:8}</style>
<path fill="none" stroke="black" d="M297.79,-302.97C307.17,-291.22 308.28,-287.38 316.79,-274.98 327.82,-258.92 330.77,-255.04 341.79,-238.98 350.3,-226.59 363.48,-225.78 360.79,-210.99"/>
<path fill="none" stroke="black" d="M360.79,-208.99C352.63,-164.12 293.22,-173.37 297.79,-128"/>
</g>
<!-- app_src_redisio&#45;&gt;main_py -->
<g id="edge16" class="edge">
<title>app_src_redisio&#45;&gt;main_py</title><style>.edge>path:hover{stroke-width:8}</style>
<path fill="none" stroke="black" d="M296.41,-180.81C295.99,-165.21 296.03,-145.49 297.79,-128"/>
</g>
</g>
</svg>
